<svg xmlns="http://www.w3.org/2000/svg" viewBox="0 0 100 100" fill="none">
  <rect width="100" height="100" rx="22" fill="#ffffff"/>
  <g stroke="#16295c">
    <circle cx="50" cy="50" r="40" stroke-width="2.6"/>
    <circle cx="50" cy="50" r="34.5" stroke-width="1" opacity="0.6"/>
    <path d="M50 30c8 6.3 13.6 15.1 13.6 23.2C63.6 61.4 57.6 67.5 50 67.5s-13.6-6.1-13.6-14.3C36.4 45.1 42 36.3 50 30Z" stroke-width="2.4" stroke-linejoin="round"/>
    <path d="M50 33.8c2.2 8 2.4 23.2 0 32.2" stroke-width="1.5" stroke-linecap="round"/>
    <path d="M43.6 38.9c-2.5 6.3-3 17-.5 24.1M56.4 38.9c2.5 6.3 3 17 .5 24.1" stroke-width="1.2" stroke-linecap="round" opacity="0.75"/>
  </g>
  <circle cx="50" cy="25.5" r="2" fill="#16295c"/>
</svg>
